PathFileType	4	(X/Y/Z)	./resultDataOpenSim/trcMotMarkerGrf/sub09/qtm-01-07.trc
DataRate	CameraRate	NumFrames	NumMarkers	Units	OrigDataRate	OrigDataStartFrame	OrigNumFrames
250.000000	250.000000	6	24	m	250.000000	296	472
Frame#	Time	L.Toe.Tip			R.Toe.Tip			L.Ankle.Lat			R.Ankle.Lat			L.Ankle.Med			R.Ankle.Med			L.Heel			R.Heel			L.Knee.Lat			R.Knee.Lat			L.Knee.Med			R.Knee.Med			L.Thigh.Upper			R.Thigh.Upper			L.ASIS			R.ASIS			V.Sacral			L.Acromium			R.Acromium			C7			L.Elbow			R.Elbow			L.Wrist.Lat			R.Wrist.Lat
		X1	Y1	Z1	X2	Y2	Z2	X3	Y3	Z3	X4	Y4	Z4	X5	Y5	Z5	X6	Y6	Z6	X7	Y7	Z7	X8	Y8	Z8	X9	Y9	Z9	X10	Y10	Z10	X11	Y11	Z11	X12	Y12	Z12	X13	Y13	Z13	X14	Y14	Z14	X15	Y15	Z15	X16	Y16	Z16	X17	Y17	Z17	X18	Y18	Z18	X19	Y19	Z19	X20	Y20	Z20	X21	Y21	Z21	X22	Y22	Z22	X23	Y23	Z23	X24	Y24	Z24

296	1.18	0.12273139	0.039715671	0.0090741981	0.9473522	0.069905036	0.10981815	0.014608101	0.13931632	-0.044825956	0.79651668	0.055525889	0.13816458	0.043270389	0.14790973	0.049400052	0.80402818	0.097675019	0.047980337	-0.063866264	0.14802299	-0.0012499833	0.73872711	0.023761199	0.084579557	0.29502209	0.45586291	-0.088675993	0.69762593	0.50179526	0.19389854	0.29699305	0.45170003	0.037484989	0.69424602	0.48637157	0.069194395	0.42861283	0.84862772	-0.11837255	0.49058054	0.84499365	0.2484667	0.53828714	0.92295559	-0.076661452	0.56374228	0.9343708	0.16602169	0.38655128	0.98117243	0.065492658	0.53362158	1.3835893	-0.10892584	0.50264921	1.3907167	0.22088171	0.45050106	1.4358931	0.051271019	0.41713175	1.0259414	-0.18141207	0.34815065	1.0644057	0.30685723	0.63950465	0.8707969	-0.15810124	0.45715159	0.81864699	0.34016307
297	1.184	0.12337402	0.039855193	0.0087259339	0.95159835	0.065090317	0.10900669	0.01826394	0.14243852	-0.046301826	0.80076921	0.054724492	0.1388565	0.047113251	0.15036285	0.047873843	0.80812442	0.096527689	0.048481945	-0.059797268	0.15300932	-0.00258899	0.74111372	0.025419499	0.085704202	0.30339838	0.45484286	-0.089180903	0.7055657	0.50190275	0.19383167	0.30548278	0.4500374	0.036901298	0.70060121	0.48524235	0.069168298	0.43650579	0.84735052	-0.11765377	0.49949618	0.84480598	0.24904932	0.5457145	0.92195029	-0.075938212	0.57146016	0.93433531	0.16625343	0.39362554	0.98078074	0.064409752	0.54031358	1.3830745	-0.10853964	0.5097835	1.3900874	0.22148497	0.45739835	1.4354198	0.052041933	0.42336039	1.0255407	-0.18095568	0.35581025	1.0635753	0.30735754	0.64497918	0.86941966	-0.15807554	0.46469501	0.8178222	0.34074091
298	1.188	0.12394085	0.040001903	0.0083706263	0.95509201	0.060316764	0.10830372	0.022141622	0.14572531	-0.047838765	0.8048882	0.053764643	0.13963599	0.051231956	0.15289751	0.046257284	0.81141983	0.095470405	0.049116108	-0.055380135	0.15823127	-0.0038856355	0.74328067	0.026819071	0.087120593	0.31210871	0.45386135	-0.089830311	0.71388397	0.50260243	0.19380174	0.31451946	0.44844305	0.0360781	0.70700357	0.484497	0.069216151	0.44444705	0.84613047	-0.11700464	0.50831413	0.84482544	0.24961759	0.5536188	0.9210621	-0.075029768	0.57910008	0.93441283	0.16656009	0.40095565	0.98050279	0.064156879	0.54698955	1.382659	-0.10817666	0.51694323	1.3895278	0.22208564	0.46433492	1.4350176	0.052724534	0.42959538	1.0252118	-0.18046329	0.36339158	1.0628158	0.30782398	0.65038547	0.86804258	-0.15808117	0.47232329	0.81706044	0.34130965
299	1.192	0.1244216	0.040161299	0.0080288	0.95805803	0.055296754	0.10754302	0.026199938	0.14916817	-0.049419282	0.80862002	0.052839479	0.14030317	0.055683419	0.15552706	0.044559133	0.81423507	0.094659187	0.049707064	-0.050585633	0.16367272	-0.0051069677	0.74506553	0.028077385	0.088557633	0.32116294	0.45289604	-0.090647162	0.72257392	0.5038254	0.19374637	0.3239473	0.44693579	0.035101007	0.71350489	0.48422545	0.069378391	0.45241609	0.84500741	-0.11645773	0.51696581	0.84505946	0.25016154	0.56181396	0.92026405	-0.074172363	0.58668397	0.93461383	0.16692499	0.40875093	0.98018155	0.065253715	0.55365698	1.3823392	-0.10782535	0.52412932	1.3890365	0.22266867	0.47127889	1.4346554	0.053336928	0.43584105	1.0249702	-0.17993681	0.37096447	1.0621395	0.30827161	0.65570618	0.86666333	-0.15811379	0.4800209	0.81636039	0.34185619
300	1.196	0.12489252	0.040372521	0.0077127391	0.96059481	0.050327855	0.10641923	0.030470888	0.15273739	-0.051000572	0.81179701	0.052064788	0.14065178	0.060525186	0.15825266	0.04281373	0.8166653	0.094075309	0.049994959	-0.045385187	0.16928598	-0.0062398546	0.74639507	0.029184161	0.089810502	0.33054968	0.45190092	-0.091601371	0.7315283	0.50536245	0.19360095	0.33356531	0.44543331	0.034094303	0.72015674	0.48443022	0.069604143	0.46038621	0.84400825	-0.11597661	0.52541779	0.84549842	0.25070342	0.56994043	0.91952241	-0.073513	0.59422301	0.9349305	0.1673233	0.41686501	0.97975148	0.067277282	0.56032491	1.382107	-0.10747176	0.53133615	1.3886076	0.22322196	0.47819484	1.4342986	0.053910379	0.44210056	1.0248228	-0.17938406	0.37864906	1.0615388	0.30874057	0.66093396	0.86527955	-0.15816615	0.4877575	0.81571226	0.34237006
301	1.2	0.12550202	0.040710197	0.0074163173	0.9626524	0.046145857	0.10478586	0.035050522	0.15640202	-0.052520055	0.81432382	0.051486495	0.1405265	0.065769203	0.16107336	0.041066362	0.81855525	0.093578262	0.04976484	-0.039763926	0.17501357	-0.0072877784	0.74729072	0.030037528	0.09066795	0.34027923	0.45084753	-0.092669622	0.7405842	0.50690944	0.19332337	0.34344631	0.44380385	0.033035495	0.72693108	0.48500885	0.06980705	0.46834995	0.84311821	-0.1154405	0.53366857	0.84611696	0.25127835	0.57779797	0.91882181	-0.072968521	0.60170865	0.93534044	0.16773777	0.42488739	0.97926467	0.069154738	0.56699818	1.3819608	-0.10710722	0.53855037	1.3882403	0.22373864	0.48505851	1.4339408	0.054459013	0.44837174	1.0247799	-0.1788148	0.38649425	1.0610041	0.309249	0.66607258	0.86389933	-0.15823284	0.49549816	0.81511168	0.34284867
